<svg xmlns="http://www.w3.org/2000/svg" height="48" viewBox="0 -960 960 960" width="48"><path d="M480.009-503q23.353 0 40.672-16.828Q538-536.655 538-560.009q0-23.353-17.407-40.672Q503.185-618 479.832-618q-23.354 0-40.093 17.407Q423-583.185 423-559.832q0 23.354 16.828 40.093Q456.655-503 480.009-503ZM480-140q126-108 196-221.317Q746-474.634 746-552q0-120.153-76.565-197.077Q592.87-826 479.962-826q-112.908 0-188.935 76.863T215-552.216q0 77.216 69.975 190.577T480-140Zm0 48Q328-228 254-344.604 180-461.209 180-552q0-141.201 90.727-225.101Q361.454-861 479.727-861T689.5-777.101Q781-693.201 781-552q0 90.791-74.5 207.396Q632-228 480-92Zm0-460Z"/></svg>